<svg width="25" height="25" viewBox="0 0 25 25" fill="none" xmlns="http://www.w3.org/2000/svg">
<g clip-path="url(#clip0)">
<path d="M23.6246 1.3752C22.7077 0.458457 21.6039 0 20.3124 0H4.68747C3.39636 0 2.29217 0.458457 1.3752 1.3752C0.458457 2.29211 0 3.3963 0 4.68747V20.3126C0 21.6039 0.458457 22.7079 1.3752 23.6247C2.29211 24.5416 3.39636 25.0001 4.68747 25.0001H8.33329C8.57182 25.0001 8.75099 24.9918 8.87031 24.9759C8.98957 24.9595 9.10883 24.8889 9.22826 24.764C9.34775 24.6393 9.40727 24.4575 9.40727 24.2189C9.40727 24.1865 9.40442 23.8172 9.39906 23.112C9.39353 22.4065 9.39085 21.8477 9.39085 21.4354L9.01648 21.5005C8.77779 21.5438 8.47667 21.5629 8.11313 21.5575C7.74976 21.552 7.3726 21.5141 6.98204 21.4436C6.59125 21.3729 6.22788 21.2102 5.89148 20.9555C5.55524 20.7002 5.31655 20.3667 5.17546 19.9545L5.01264 19.5799C4.90416 19.3306 4.73336 19.0537 4.50003 18.7502C4.2667 18.4462 4.03074 18.24 3.79205 18.1315L3.67809 18.0501C3.60221 17.9959 3.53169 17.9305 3.46653 17.8546C3.40149 17.7785 3.35269 17.7025 3.32014 17.6268C3.28759 17.5507 3.31461 17.4882 3.40149 17.4393C3.48837 17.3905 3.64554 17.3664 3.87351 17.3664L4.19891 17.4151C4.416 17.4584 4.68439 17.5885 5.00466 17.8057C5.32471 18.0226 5.5878 18.3047 5.79399 18.6518C6.04369 19.0968 6.34452 19.4357 6.69734 19.669C7.04988 19.9026 7.40532 20.0192 7.76333 20.0192C8.12134 20.0192 8.43055 19.9921 8.69108 19.938C8.95132 19.8837 9.19548 19.8021 9.42346 19.6936C9.52111 18.9667 9.787 18.4076 10.2209 18.017C9.60246 17.9518 9.04641 17.8543 8.55255 17.724C8.05897 17.5937 7.54892 17.3822 7.02274 17.0891C6.49633 16.7961 6.05965 16.4329 5.71242 15.9986C5.36524 15.5643 5.08031 14.9947 4.85804 14.2896C4.63565 13.5841 4.52443 12.7702 4.52443 11.848C4.52443 10.5352 4.95318 9.41736 5.81036 8.49514C5.40879 7.50776 5.4467 6.40113 5.9242 5.17489C6.23888 5.07718 6.70555 5.15049 7.32397 5.39465C7.94251 5.63899 8.39538 5.84792 8.68304 6.02128C8.9707 6.1947 9.20118 6.34133 9.37483 6.46081C10.3842 6.17868 11.4257 6.03764 12.4999 6.03764C13.574 6.03764 14.6157 6.17868 15.6251 6.46081L16.2436 6.0702C16.6669 5.80967 17.166 5.57098 17.7411 5.35406C18.3162 5.13709 18.7556 5.07735 19.0596 5.17506C19.5477 6.4013 19.5913 7.50793 19.1895 8.49525C20.0466 9.41758 20.4755 10.5353 20.4755 11.8482C20.4755 12.7706 20.3643 13.5872 20.1419 14.2977C19.9197 15.0085 19.6323 15.5783 19.2794 16.0069C18.9268 16.4355 18.4873 16.7961 17.9611 17.0892C17.4348 17.3821 16.9248 17.5939 16.431 17.7239C15.9373 17.8542 15.3813 17.9521 14.7628 18.0173C15.3267 18.5054 15.6088 19.2756 15.6088 20.3283V24.2184C15.6088 24.4029 15.6357 24.552 15.6899 24.6659C15.7445 24.7798 15.8312 24.8583 15.9505 24.902C16.0703 24.9453 16.1756 24.9724 16.2681 24.9832C16.3606 24.9941 16.4932 24.9995 16.6669 24.9995H20.3127C21.6038 24.9995 22.7081 24.5411 23.6246 23.6242C24.5415 22.7073 24.9999 21.603 24.9999 20.3119V4.68747C24.9998 3.3963 24.5414 2.29194 23.6246 1.3752Z" fill="#233349"/>
</g>
<defs>
<clipPath id="clip0">
<rect width="25" height="25" fill="white"/>
</clipPath>
</defs>
</svg>
