<svg width="25" height="25" viewBox="0 0 25 25" fill="none" xmlns="http://www.w3.org/2000/svg">
<g clip-path="url(#clip0)">
<path d="M12.5044 6.08154C8.95963 6.08154 6.08984 8.95446 6.08984 12.4961C6.08984 16.0409 8.96276 18.9107 12.5044 18.9107C16.0492 18.9107 18.919 16.0378 18.919 12.4961C18.919 8.95133 16.0461 6.08154 12.5044 6.08154ZM12.5044 16.6597C10.2034 16.6597 8.34089 14.7961 8.34089 12.4961C8.34089 10.1961 10.2044 8.33258 12.5044 8.33258C14.8044 8.33258 16.668 10.1961 16.668 12.4961C16.669 14.7961 14.8055 16.6597 12.5044 16.6597Z" fill="#233349"/>
<path d="M17.6544 0.079016C15.3544 -0.0282756 9.65753 -0.0230673 7.35545 0.079016C5.33253 0.173808 3.54815 0.662349 2.10961 2.10089C-0.294555 4.50506 0.0127367 7.74464 0.0127367 12.4957C0.0127367 17.3582 -0.258097 20.5228 2.10961 22.8905C4.52315 25.303 7.80961 24.9873 12.5044 24.9873C17.3211 24.9873 18.9836 24.9905 20.6867 24.3311C23.0023 23.4321 24.7502 21.3623 24.9211 17.6446C25.0294 15.3436 25.0232 9.64776 24.9211 7.34568C24.7148 2.95714 22.3596 0.295683 17.6544 0.079016ZM21.295 21.2998C19.719 22.8759 17.5325 22.7353 12.4742 22.7353C7.26586 22.7353 5.17732 22.8123 3.65336 21.2842C1.89815 19.5373 2.21586 16.7321 2.21586 12.479C2.21586 6.72381 1.62524 2.57902 7.40128 2.28318C8.72836 2.23631 9.11899 2.22068 12.4596 2.22068L12.5065 2.25193C18.0575 2.25193 22.4127 1.67068 22.6742 7.44568C22.7336 8.76339 22.7471 9.15922 22.7471 12.4946C22.7461 17.6426 22.844 19.7436 21.295 21.2998Z" fill="#233349"/>
<path d="M19.1728 7.32702C20.0006 7.32702 20.6717 6.65591 20.6717 5.82806C20.6717 5.00021 20.0006 4.3291 19.1728 4.3291C18.3449 4.3291 17.6738 5.00021 17.6738 5.82806C17.6738 6.65591 18.3449 7.32702 19.1728 7.32702Z" fill="#233349"/>
</g>
<defs>
<clipPath id="clip0">
<rect width="25" height="25" fill="white"/>
</clipPath>
</defs>
</svg>
